<?xml version="1.0" encoding="utf-8"?>
<!-- Generator: Adobe Illustrator 25.3.1, SVG Export Plug-In . SVG Version: 6.00 Build 0)  -->
<svg version="1.1" id="Layer_2_Image" xmlns="http://www.w3.org/2000/svg" xmlns:xlink="http://www.w3.org/1999/xlink" x="0px"
	 y="0px" viewBox="0 0 128.6 122.8" style="enable-background:new 0 0 128.6 122.8;" xml:space="preserve">
<path d="M106.5,121.8H22.1c-11.6,0-21.1-9.4-21.1-21.1V22C1,10.4,10.5,1,22.1,1h84.4c11.6,0,21.1,9.4,21.1,21.1v78.7
	C127.6,112.4,118.1,121.8,106.5,121.8z M22.1,7.3c-8.1,0-14.7,6.6-14.8,14.8v78.7c0,8.1,6.6,14.7,14.8,14.8h84.4
	c8.1,0,14.7-6.6,14.8-14.8V22c0-8.1-6.6-14.7-14.8-14.8L22.1,7.3z"/>
<path d="M64.3,93.8c-17.8,0-32.1-14.4-32.1-32.2s14.4-32.1,32.2-32.1c17.7,0,32.1,14.4,32.1,32.2C96.5,79.4,82.1,93.8,64.3,93.8z
	 M64.3,35.8c-14.3,0-25.8,11.6-25.8,25.8c0,14.3,11.6,25.8,25.8,25.8c14.3,0,25.8-11.6,25.8-25.8C90.1,47.4,78.5,35.8,64.3,35.8z"/>
<path d="M96.5,26.7c0,3,2.4,5.4,5.4,5.4c3,0,5.4-2.4,5.4-5.4c0-3-2.4-5.4-5.4-5.4c0,0,0,0,0,0C98.9,21.4,96.5,23.8,96.5,26.7
	C96.5,26.7,96.5,26.7,96.5,26.7"/>
</svg>
