<?xml version="1.0" encoding="utf-8"?>
<!-- Generator: Adobe Illustrator 25.3.1, SVG Export Plug-In . SVG Version: 6.00 Build 0)  -->
<svg version="1.1" id="Layer_1" xmlns="http://www.w3.org/2000/svg" xmlns:xlink="http://www.w3.org/1999/xlink" x="0px" y="0px"
	 viewBox="0 0 615 165.6" style="enable-background:new 0 0 615 165.6;" xml:space="preserve">
<style type="text/css">
	.st0{fill:#231F20;}
</style>
<g>
	<g>
		<path class="st0" d="M566.7,164c24.9,0,42.4-6.6,42.4-22.8c0-15.4-11.9-20.4-40-24.5c-20.1-2.9-23.7-3.7-23.7-7.3
			c0-4.2,7.5-6.6,22.4-6.6c17.3,0,23.7,4.7,23.5,11.6l16.8-8c-3.8-11.9-18.3-20.1-41.8-20.1c-22.8,0-39.5,7.9-39.5,21.9
			c0,14.7,12.3,21.1,39.5,25.1c19.5,2.8,24.3,3.5,24.3,7.6c0,4.5-7.1,6.6-23.1,6.6c-18.1,0-25.6-5.5-27.7-11.6l-16.5,7.8
			C527.7,155.4,543.2,164,566.7,164 M522.1,87.8h-81.7v16.5h31.8v58.2h18v-58.2h31.8V87.8z M414.2,87.8v53.1l-51.4-53.1h-21.3v74.7
			h18v-53.1l51.4,53.1h21.3V87.8H414.2z M329.9,104.4V87.8h-73.1v74.7h73.1V146h-55.1v-13.6h46.8v-16.5h-46.8v-11.5H329.9z
			 M194.1,146V87.8h-18v74.7h72.3V146H194.1z M109.9,133.1l13-28.1l13,28.1H109.9z M149.7,162.5h19.7l-35.2-74.7h-22.5l-35.2,74.7
			h19.7l6-12.9h41.6L149.7,162.5z M87.5,87.8H5.9v16.5h31.8v58.2h18v-58.2h31.8V87.8z"/>
	</g>
	<path class="st0" d="M12.1,1.6v74.7h18V46.1h46.8V29.6H30.1V18.1h55.1V1.6H12.1z M94.6,76.3h18V1.6h-18V76.3z M127,1.6v74.7h72.3
		V59.7H145V1.6H127z M296.8,1.6l-34,58.7l-34-58.7h-21v74.7h18V31.5L252,76.3h21.6l26.2-44.8v44.8h18V1.6H296.8z"/>
</g>
</svg>
